HIERARCHY
ROOT Hips
{
	OFFSET -14.64140 90.27770 -84.91600
	CHANNELS 6 Xposition Yposition Zposition Zrotation Xrotation Yrotation
	JOINT Spine
	{
		OFFSET 0.00000 13.20850 -1.60436
		CHANNELS 3 Zrotation Xrotation Yrotation
		JOINT Spine1
		{
			OFFSET 0.00000 8.61716 0.00000
			CHANNELS 3 Zrotation Xrotation Yrotation
			JOINT Spine2
			{
				OFFSET 0.00000 8.61717 0.00000
				CHANNELS 3 Zrotation Xrotation Yrotation
				JOINT Spine3
				{
					OFFSET 0.00000 8.61717 0.00000
					CHANNELS 3 Zrotation Xrotation Yrotation
					JOINT Neck
					{
						OFFSET 0.00000 11.07920 1.10792
						CHANNELS 3 Zrotation Xrotation Yrotation
						JOINT Neck1
						{
							OFFSET 0.00000 7.08032 0.00000
							CHANNELS 3 Zrotation Xrotation Yrotation
							JOINT Head
							{
								OFFSET 0.00000 7.08031 0.00000
								CHANNELS 3 Zrotation Xrotation Yrotation
								End site
								{
									OFFSET 0.00000 0.00000 0.00000
								}
							}
						}
					}
					JOINT RightShoulder
					{
						OFFSET -0.01000 7.91373 5.19711
						CHANNELS 3 Zrotation Xrotation Yrotation
						JOINT RightArm
						{
							OFFSET -18.41580 0.00000 0.00000
							CHANNELS 3 Zrotation Xrotation Yrotation
							JOINT RightForeArm
							{
								OFFSET -29.11090 0.00000 0.00000
								CHANNELS 3 Zrotation Xrotation Yrotation
								JOINT RightHand
								{
									OFFSET -24.65040 0.00000 0.00000
									CHANNELS 3 Zrotation Xrotation Yrotation
									JOINT RightHandThumb1
									{
										OFFSET -5.35114 -0.85590 3.97906
										CHANNELS 3 Zrotation Xrotation Yrotation
										JOINT RightHandThumb2
										{
											OFFSET -4.52789 0.00000 0.00000
											CHANNELS 3 Zrotation Xrotation Yrotation
											JOINT RightHandThumb3
											{
												OFFSET -2.46976 0.00000 0.00000
												CHANNELS 3 Zrotation Xrotation Yrotation
												End site
												{
													OFFSET 0.00000 0.00000 0.00000
												}
											}
										}
									}
									JOINT RightHandIndex1
									{
										OFFSET -14.26970 0.00000 2.88139
										CHANNELS 3 Zrotation Xrotation Yrotation
										JOINT RightHandIndex2
										{
											OFFSET -5.48836 0.00000 0.00000
											CHANNELS 3 Zrotation Xrotation Yrotation
											JOINT RightHandIndex3
											{
												OFFSET -3.01859 0.00000 0.00000
												CHANNELS 3 Zrotation Xrotation Yrotation
												End site
												{
													OFFSET 0.00000 0.00000 0.00000
												}
											}
										}
									}
									JOINT RightHandMiddle1
									{
										OFFSET -14.26970 0.00000 -0.09147
										CHANNELS 3 Zrotation Xrotation Yrotation
										JOINT RightHandMiddle2
										{
											OFFSET -6.17441 0.00000 0.00000
											CHANNELS 3 Zrotation Xrotation Yrotation
											JOINT RightHandMiddle3
											{
												OFFSET -3.56743 0.00000 0.00000
												CHANNELS 3 Zrotation Xrotation Yrotation
												End site
												{
													OFFSET 0.00000 0.00000 0.00000
												}
											}
										}
									}
									JOINT RightHandRing1
									{
										OFFSET -12.69180 0.00000 -3.06433
										CHANNELS 3 Zrotation Xrotation Yrotation
										JOINT RightHandRing2
										{
											OFFSET -5.62556 0.00000 0.00000
											CHANNELS 3 Zrotation Xrotation Yrotation
											JOINT RightHandRing3
											{
												OFFSET -3.56744 0.00000 0.00000
												CHANNELS 3 Zrotation Xrotation Yrotation
												End site
												{
													OFFSET 0.00000 0.00000 0.00000
												}
											}
										}
									}
									JOINT RightHandPinky1
									{
										OFFSET -11.11390 0.00000 -6.03719
										CHANNELS 3 Zrotation Xrotation Yrotation
										JOINT RightHandPinky2
										{
											OFFSET -4.52789 0.00000 0.00000
											CHANNELS 3 Zrotation Xrotation Yrotation
											JOINT RightHandPinky3
											{
												OFFSET -2.46976 0.00000 0.00000
												CHANNELS 3 Zrotation Xrotation Yrotation
												End site
												{
													OFFSET 0.00000 0.00000 0.00000
												}
											}
										}
									}
								}
							}
						}
					}
					JOINT LeftShoulder
					{
						OFFSET 0.01000 7.91373 5.19711
						CHANNELS 3 Zrotation Xrotation Yrotation
						JOINT LeftArm
						{
							OFFSET 18.41580 0.00000 0.00000
							CHANNELS 3 Zrotation Xrotation Yrotation
							JOINT LeftForeArm
							{
								OFFSET 29.11090 0.00000 0.00000
								CHANNELS 3 Zrotation Xrotation Yrotation
								JOINT LeftHand
								{
									OFFSET 24.65040 0.00000 0.00000
									CHANNELS 3 Zrotation Xrotation Yrotation
									JOINT LeftHandThumb1
									{
										OFFSET 5.35114 -0.85590 3.97906
										CHANNELS 3 Zrotation Xrotation Yrotation
										JOINT LeftHandThumb2
										{
											OFFSET 4.52789 0.00000 0.00000
											CHANNELS 3 Zrotation Xrotation Yrotation
											JOINT LeftHandThumb3
											{
												OFFSET 2.46977 0.00000 0.00000
												CHANNELS 3 Zrotation Xrotation Yrotation
												End site
												{
													OFFSET 0.00000 0.00000 0.00000
												}
											}
										}
									}
									JOINT LeftHandIndex1
									{
										OFFSET 14.26970 0.00000 2.88139
										CHANNELS 3 Zrotation Xrotation Yrotation
										JOINT LeftHandIndex2
										{
											OFFSET 5.48836 0.00000 0.00000
											CHANNELS 3 Zrotation Xrotation Yrotation
											JOINT LeftHandIndex3
											{
												OFFSET 3.01859 0.00000 0.00000
												CHANNELS 3 Zrotation Xrotation Yrotation
												End site
												{
													OFFSET 0.00000 0.00000 0.00000
												}
											}
										}
									}
									JOINT LeftHandMiddle1
									{
										OFFSET 14.26970 0.00000 -0.09147
										CHANNELS 3 Zrotation Xrotation Yrotation
										JOINT LeftHandMiddle2
										{
											OFFSET 6.17440 0.00000 0.00000
											CHANNELS 3 Zrotation Xrotation Yrotation
											JOINT LeftHandMiddle3
											{
												OFFSET 3.56744 0.00000 0.00000
												CHANNELS 3 Zrotation Xrotation Yrotation
												End site
												{
													OFFSET 0.00000 0.00000 0.00000
												}
											}
										}
									}
									JOINT LeftHandRing1
									{
										OFFSET 12.69180 0.00000 -3.06433
										CHANNELS 3 Zrotation Xrotation Yrotation
										JOINT LeftHandRing2
										{
											OFFSET 5.62556 0.00000 0.00000
											CHANNELS 3 Zrotation Xrotation Yrotation
											JOINT LeftHandRing3
											{
												OFFSET 3.56744 0.00000 0.00000
												CHANNELS 3 Zrotation Xrotation Yrotation
												End site
												{
													OFFSET 0.00000 0.00000 0.00000
												}
											}
										}
									}
									JOINT LeftHandPinky1
									{
										OFFSET 11.11390 0.00000 -6.03719
										CHANNELS 3 Zrotation Xrotation Yrotation
										JOINT LeftHandPinky2
										{
											OFFSET 4.52789 0.00000 0.00000
											CHANNELS 3 Zrotation Xrotation Yrotation
											JOINT LeftHandPinky3
											{
												OFFSET 2.46976 0.00000 0.00000
												CHANNELS 3 Zrotation Xrotation Yrotation
												End site
												{
													OFFSET 0.00000 0.00000 0.00000
												}
											}
										}
									}
								}
							}
						}
					}
					JOINT pCube4
					{
						OFFSET 0.00000 10.91090 1.10792
						CHANNELS 3 Zrotation Xrotation Yrotation
						End site
						{
							OFFSET 0.00000 0.00000 0.00000
						}
					}
				}
			}
		}
	}
	JOINT RightUpLeg
	{
		OFFSET -9.98441 0.00000 0.00000
		CHANNELS 3 Zrotation Xrotation Yrotation
		JOINT RightLeg
		{
			OFFSET 0.00000 -42.11790 0.00000
			CHANNELS 3 Zrotation Xrotation Yrotation
			JOINT RightFoot
			{
				OFFSET 0.00000 -45.00020 -0.00001
				CHANNELS 3 Zrotation Xrotation Yrotation
				JOINT RightForeFoot
				{
					OFFSET 0.00000 -3.74820 0.00000
					CHANNELS 3 Zrotation Xrotation Yrotation
					JOINT RightToeBase
					{
						OFFSET 0.00000 0.06325 14.43120
						CHANNELS 3 Zrotation Xrotation Yrotation
						End site
						{
							OFFSET 0.00000 0.00000 0.00000
						}
					}
				}
			}
		}
	}
	JOINT LeftUpLeg
	{
		OFFSET 9.98441 0.00000 0.00000
		CHANNELS 3 Zrotation Xrotation Yrotation
		JOINT LeftLeg
		{
			OFFSET 0.00000 -42.11800 0.00000
			CHANNELS 3 Zrotation Xrotation Yrotation
			JOINT LeftFoot
			{
				OFFSET 0.00000 -45.00070 0.00000
				CHANNELS 3 Zrotation Xrotation Yrotation
				JOINT LeftForeFoot
				{
					OFFSET 0.00000 -3.74824 0.00000
					CHANNELS 3 Zrotation Xrotation Yrotation
					JOINT LeftToeBase
					{
						OFFSET 0.00000 0.06325 14.43110
						CHANNELS 3 Zrotation Xrotation Yrotation
						End site
						{
							OFFSET 0.00000 0.00000 0.00000
						}
					}
				}
			}
		}
	}
}
MOTION
Frames: 4
Frame Time: 0.050000
0.02466065280727398 -0.010462283513050969 0.007433986006540671 -0.008022823099914558 0.03147555010102318 -0.037848415895425994 -3.6686933299865747 4.164100751688139 -0.6352332103489583 -0.994257505217126 3.8897923329168047 0.375785780425021 -1.3219789975393317 -1.0107243381953752 -0.09775937130956504 0.39854861393975644 0.8251141820032282 -0.729688372191616 0.7174838325441767 12.15059916711249 -2.212382468333751 -0.3568145113755973 -1.860552604121986 -8.955441802003177 0.49588855220440486 -17.98416768914481 -0.6779463998533493 -3.640428433453808 1.5783225707443607 -13.10625093118515 69.81578719812087 15.006143381604545 22.622882095098795 6.771743417372499 5.059364873070768 84.71513856467206 13.436127841339365 -0.4546989631183163 -4.432232967318606 4.499038742410296 -0.11181319783622005 -1.6222204031892562 0.041210627956035396 0.007387722430627375 -56.26100878260186 -0.01599112164541418 -0.03444946701087002 -56.25111987552747 -38.73015228995939 -0.028664058002340367 0.042244885476829495 -0.04795791092657869 0.035319801119370116 0.017230223884491594 0.03799729556564897 -0.03665813834888683 -0.01571306060897529 -36.716973317465545 -0.02222526112610426 -0.011090521442128494 0.04461823440205839 -0.005867719310499803 0.03695864052701173 -0.03372172992180927 0.044611044062637654 -0.014600700696284817 -19.77524676290802 -0.029465824832552348 -0.023932900763681847 -0.024968598108567622 -0.0344296568366257 -0.03461084357983694 -0.04994387014951469 -0.032563328862540535 -0.020005788355735434 24.018887478331777 -0.004365487697666536 -0.04440063760042883 28.890230399942162 0.0453489296192958 -0.026805241938876408 28.854508600379127 -0.048505216117331794 -0.0033204661231097834 1.4278136503611587 0.5184448701420707 11.68180863390827 -65.99013182896077 26.045218439301056 -7.384371894113151 6.841049871061508 -13.414664669316169 -52.85198807589952 -8.937992094846658 2.537789288238292 0.6186960446899086 -0.4716872198776868 0.04264103753653776 -8.14870851602914 -0.0032067586360128497 -0.04899572890883575 44.51949126281519 0.0406739060023242 0.02858873962468512 44.56507906995058 12.456880632541138 0.01920567879447554 0.040201278333487266 0.019422551255505335 0.026836738609867367 -0.04980278327454708 0.03594372203905153 -0.0020040354312404612 -0.03645859074394671 11.121115949816412 -0.03791124004335017 0.007093640129606168 0.03802784762376787 -0.020975685911919593 -0.009396324629820483 -0.007479643970521605 -0.006784799024870631 -0.02638632241762658 4.789840912674026 0.03831752100401289 0.027871515137203796 -0.027531642732388697 0.0017549125963178588 -0.04778342042174682 0.006455482259928935 0.03670773908279982 0.016062892529307014 -5.604072676119334 -0.03852085127622542 0.03869471265894117 -6.693281372162511 -0.02149270669972525 -0.018202484513033714 -6.7361004349510285 -0.0065211839211586865 -0.04701863351802258 0.00035003157119796013 0.008759972757553343 -0.0315504391609553 8.008208923267796 3.5250531301349355 -19.265770819349047 0.01879936534175274 10.410421944514635 0.02139954496618662 -5.639263205876339 -15.65000517569912 3.1663309995713 0.02814580537523368 0.013089844434045879 0.009008167000249276 -0.008903112329431332 4.691204974239861 -0.04135548482694539 12.430415763666256 -8.287290155088433 6.892278099077463 0.040883001908983786 46.40669492377194 0.009473112551565915 -4.313329697340499 -14.716476674801143 -3.8075869783548133 -0.024727517018742488 -0.04501179491016192 0.03408023338351013 -0.03844806353446576 -10.739386847951275 -0.008590376872588243 
0.008260690278990004 -0.02178841526711557 -0.034718931939285186 0.007179932296879749 -0.035513974444288096 -0.0012671215603916762 -3.518055829918586 3.967514495793087 -0.6638060991051091 -1.058769441281993 3.870248116684885 0.44792412674971976 -1.3011098058957584 -1.078346817648348 -0.10045189427626723 0.30281661239282076 0.7713805039106204 -0.7525830290200228 0.6152469236404211 12.39582365659471 -2.080201476587375 -0.3576697194321372 -1.748101030875484 -8.369092457923925 0.49531713229445606 -17.95019798778357 -0.6427416473462346 -4.193125294628258 1.6275472127624722 -13.408660221588695 70.4533162682538 14.582109598279127 21.980860533750818 4.480720087215156 4.994157152558813 82.60298633338557 13.296301145487146 -0.5027035851467294 -4.144811863573152 4.5083116463429915 -0.11538630823588561 -1.6250812608403753 -0.037148898967453554 -0.042890548156356845 -56.241323407371304 0.01691592145426814 -0.028298531525745803 -56.219523194253924 -38.812972331376585 0.008037035279189213 -0.01433486936281482 -0.006736238852828043 -0.02431182213281129 -0.0014137702912791642 -0.01544668737988616 0.006393351667567454 -0.04236580017898788 -36.714036096653274 0.03348044806235351 0.0240046197000519 -0.0244601574783145 0.043350400669366004 0.016331566539350188 0.0016904484605123544 -0.03733745125954525 -0.033980188673658714 -19.725233986636717 0.022083097005815785 -0.037038248954643076 -0.011009392606523637 0.012412937306217972 0.0017941369975019849 -0.033302672384884116 0.030878806176560573 -0.03264019311071635 24.08997768662267 -0.007983502882789782 0.03508711735307023 28.82243253193196 -9.688205984602585e-05 -0.005261796467317329 28.876151427671456 -0.03474930916950336 -0.02910652782147105 2.043008922452121 0.7145718301407898 11.857120799778595 -66.3803483843867 26.139856634122395 -7.668759768704064 6.460534557460285 -13.512880411469519 -52.82309060676212 -9.034025942271517 1.9407941086555636 1.001381178062036 -0.49468236710815355 0.0716790890898521 -8.127599625370538 -0.010042702951888418 0.021542942517070004 44.55919667596382 0.005577065036524175 -0.034524691049657226 44.57813612163855 12.49355874001399 0.010676920633992948 -0.04626935096993717 -0.031188151760178598 -0.012307058833756945 -0.0035984885027620685 0.008958389277812919 0.04280260737245784 -0.010026963698460711 11.08882116257898 -0.024914702641962314 -0.004630783016613901 -0.04091375888718003 0.02529144393386176 -0.045238409903060724 -0.03515252043881115 -0.01976098796298569 -0.03201522353105824 4.762035878729348 0.0015385300419319926 0.04237285504115661 0.007165483039719734 0.03465254350658352 -0.0003875819621035636 -0.027882797960625844 -0.0217314026046761 0.0004649404462628446 -5.614767879940423 -0.019765040579523826 -0.015305061451473161 -6.686978390077378 -0.038113972470990895 -0.012149096577108512 -6.704228470269492 0.01144884220405658 -0.041715200378888914 -0.04421175148244737 -0.01132836798971835 -0.00041046525723041643 8.070595958987264 3.514064010587836 -19.221783957833797 0.03983702022036963 10.423096738518677 -0.01871797882910849 -5.635209699379062 -15.65314146395642 3.143861603232995 0.00396429297282102 -0.016682261381955717 0.00484899597673249 -0.017875779989325446 4.725194012433912 0.022507174212263663 12.48571509844522 -8.228812006284345 6.906892477274235 -0.01727363701525391 46.39611199136343 0.004974712526182203 -4.360377118415711 -14.701926820206555 -3.8781471695925007 -0.044410143736329184 0.030773926762490102 -0.015359549726893226 0.015263448766650258 -10.766470677655233 0.008463130985576476 
0.021610895754930918 -0.01143458229709908 0.04507906556182928 -0.040149670241807295 0.008861988068763477 0.02159293019586514 -3.2649898788428127 3.718551782187047 -0.700260478749465 -1.0108634389398121 3.931811765251098 0.38050898906640634 -1.3066341525139085 -1.2046140226994568 -0.05632817035707453 0.32695677768981013 0.796433067311403 -0.7192038164483456 0.5578589361067667 12.746016223331115 -1.9349105676553744 -0.29032342120157245 -1.5535551715047142 -7.87307996861619 0.5429513127591845 -17.762703447260844 -0.6857292383744985 -4.625000696788212 1.765722089417643 -13.567538753604676 70.99408639973942 14.725021721443982 21.085390531531026 1.6662733281236417 4.688628584859637 79.22384934547543 13.298288342045359 -0.42747073157245413 -3.768935580730378 4.567276083961479 -0.10223155916818373 -1.5695759138446808 0.007760888951660803 0.025098089804935792 -56.216410773605425 -0.046487828958806654 -0.03743866236620807 -56.21232714851363 -38.76072464511432 -0.03926158156771921 -0.03447075928627125 0.019876126528982754 0.003371015032782873 0.028099653858400277 0.03480413391303695 0.013103234992157042 0.04977254683860302 -36.73056481202765 -0.024103537471180367 -0.018836373095806307 -0.03409163051005546 -0.015555350476253818 -0.01714384279735922 0.028540781634115785 0.02617428238038006 0.007608184945134986 -19.802571832624956 -0.041916790289980334 0.0016495320888081472 0.012938954871284282 0.04254572130831789 -0.007589176271900572 -0.02326714715742476 0.03456127184015026 -0.04885001129023028 24.098200611393754 0.02985743778912196 0.020007512939642834 28.896876193725518 -0.041317157295062044 -0.0038727680912541674 28.911375983677594 -0.013206421932291056 -0.04464859842602362 2.675168216464163 0.7866469400395559 12.060674600516801 -66.3746226448319 26.403954861709398 -8.195173025777477 6.0376668635680515 -13.574045071005056 -53.04963425822672 -9.291083312433905 1.3321186747590563 1.3665363708226181 -0.5118535812038765 0.0841859814854847 -8.173097769792419 0.04615526243927598 -0.04038059159882287 44.60747037178421 -0.02823882740266519 0.012300385154591056 44.54983926360729 12.454181677428897 -0.01565431776019297 0.01182659082704229 -0.007151674711523237 0.001550517715420261 0.008770459010337366 -0.031716434419401605 0.00989020724859126 0.03307571712750507 11.153494211493912 -0.049888249872476184 -0.01754948316796405 0.03655461864156757 0.03788007965940356 0.024614592269502397 -0.034653921400027266 0.01596841552794343 -0.00984522025874079 4.81739380621653 0.04772529952705542 0.023003783757192028 0.005071597735686128 0.00227213267407209 0.02775215894230615 -0.01982704125300554 -0.016233612518807117 -0.029229368679387444 -5.575612055847594 -0.0025142390638188896 0.01758670760998887 -6.704846781239117 0.008420702243192852 0.021376046678067518 -6.682699214516281 -0.041864619622516065 -0.01179432006661226 -0.02238176503659984 -0.034752260899848765 0.03965051431499901 8.02967943735366 3.483648852614685 -19.245757557686872 0.04270488665292827 10.35013513680487 0.048537704528057446 -5.605600717482755 -15.69641491791901 3.222860053823888 0.049442612192101575 0.030743411884058564 -0.02295738589777423 0.017790035740354943 4.72818901625053 0.023310786049848767 12.443727762568434 -8.212027269853305 6.929922602842625 0.029697752347639845 46.41702643602194 -0.020689385108163687 -4.361102024271395 -14.7727778626041 -3.8028502412339114 -0.04039026292148752 0.012953048182344737 0.0012716387524345676 0.009579303343014404 -10.716246318059556 -0.0329220288579296 
-0.02632750417973383 -0.039763918938994045 -0.03324205186549762 -0.04879783789532927 0.0382573073220446 -0.022075283897385077 -2.956455538654816 3.4875963806502166 -0.7617001818433665 -1.018260615447172 3.9581750108807143 0.36361543660599477 -1.3001149701027164 -1.2790941818969523 -0.044376435607549634 0.25473773012565765 0.6659097407322763 -0.6673868635282838 0.4557508852851717 13.000786661281477 -1.8649407117922536 -0.27390408825008744 -1.4056888021003808 -7.508512805618798 0.5361439748652782 -17.485212946710696 -0.6273721033232751 -5.2908892375078285 1.9599671397267486 -13.72604187623639 71.26096610182387 13.926821689533318 21.46130998273293 0.19190977660475544 4.156983758235324 78.09833738285619 13.108228536885035 -0.41175804620144313 -3.3619758089134333 4.509043536164726 -0.10641060546117674 -1.641329331582496 -0.0124420319756036 -0.017033358962806586 -56.19219336582398 0.04174390714562162 0.008240941033194624 -56.26524805284995 -38.811260429218024 0.027033807024949705 -0.026314280462224653 0.04211716834789413 -0.007379046355454293 0.010107407999972414 -0.02238103211322874 -0.010513178862378816 -0.045214155231862646 -36.67079505888977 0.032533655232265944 0.013923311998366187 -0.03277255268738701 0.005266326575711044 0.00513726787875356 -0.01249985930539992 -0.01080069937625979 -0.030880012717405862 -19.796745017529062 0.02847414506576142 0.028582074627596554 -0.00957513026675762 -0.04591389118755897 0.01469659348173795 -0.035627783335195645 0.0019164748324054627 -0.03971823700188549 24.046187684966085 -0.014384149534018219 0.022994518967296075 28.85801259600448 -0.036859109294190166 -0.0020336993232612176 28.865625842632628 -0.049550162266852577 -0.0042532891776849244 3.544242297035284 0.9561758330884645 12.235433080168493 -66.40350893811608 25.79012290312766 -9.393371043031213 5.667053392396803 -13.44486970323201 -53.898374157474514 -9.029360445135588 0.9625494664155643 1.5117867200571773 -0.49517867851205793 0.020452223847518464 -8.091863301183775 0.0041955150118635175 0.01377651033191646 44.5363504468648 -0.016112499703791507 0.01697463336735283 44.542347742618496 12.456269702604123 0.0017139573841170456 -0.021001883656470186 0.014907185344085932 -0.02120537853567357 -0.02906795352807399 -0.0019047910436710436 0.0011158729917127392 -0.02575470916506767 11.1374925792496 0.021937093296990562 0.012301098715800889 0.0039923580328647635 -0.0007395481972034387 0.008435322763450864 -0.04224669509075375 0.03092837762914796 -0.038669060160515994 4.7983130748222775 -0.043991991868212316 0.00987409606989117 -0.02162084732158356 -0.04553742078635083 -0.012975278857471208 0.030164885058496956 -0.04595291746793559 0.007708378997241289 -5.5975534557143725 0.021456554635402608 -0.03497632539035115 -6.694165575314021 0.017964027191130168 0.011903253862286585 -6.698195321946151 -0.00262286605397674 0.03824742730083427 0.0272579888611802 0.020721486415513014 -0.009124186457417463 8.00934856976425 3.4766061809255335 -19.243076022135725 0.040543137372260236 10.410982041136815 0.026331944703241867 -5.5978043253854795 -15.620812164365038 3.1533426223287826 0.041960355272112 -0.018940468973993298 0.0003925578018333163 -0.045538967923616454 4.680989066273676 0.02155547201542566 12.418708555939585 -8.272585946062332 6.903064712188623 0.0004280271846244063 46.404217337254806 -0.03986083165956864 -4.3075178788388335 -14.716693922737333 -3.792716288516445 0.01997772688475679 0.005104063555529272 0.013656640673034844 0.043776741579530425 -10.784128176564945 0.007849503863295922 
